<?xml version="1.0" encoding="UTF-8" standalone="no"?>
<!-- Created with Inkscape (http://www.inkscape.org/) -->

<svg
   xmlns:dc="http://purl.org/dc/elements/1.1/"
   xmlns:cc="http://creativecommons.org/ns#"
   xmlns:rdf="http://www.w3.org/1999/02/22-rdf-syntax-ns#"
   xmlns:svg="http://www.w3.org/2000/svg"
   xmlns="http://www.w3.org/2000/svg"
   xmlns:xlink="http://www.w3.org/1999/xlink"
   xmlns:sodipodi="http://sodipodi.sourceforge.net/DTD/sodipodi-0.dtd"
   xmlns:inkscape="http://www.inkscape.org/namespaces/inkscape"
   width="128"
   height="128"
   id="svg2606"
   sodipodi:version="0.32"
   inkscape:version="0.48.2 r9819"
   version="1.0"
   sodipodi:docname="save-pdf.svg"
   inkscape:output_extension="org.inkscape.output.svgz.inkscape"
   inkscape:export-filename="/home/cgollwit/Programmieren/SAXSTools/autosaxs.vfs/lib/app-autosaxs/icons/save-pdf.png"
   inkscape:export-xdpi="22.5"
   inkscape:export-ydpi="22.5">
  <defs
     id="defs2608">
    <linearGradient
       id="linearGradient6131">
      <stop
         id="stop6133"
         offset="0"
         style="stop-color:#fcfcfc;stop-opacity:1" />
      <stop
         style="stop-color:#f8f8f8;stop-opacity:1"
         offset="0.52275378"
         id="stop6135" />
      <stop
         id="stop6141"
         offset="0.77457333"
         style="stop-color:#f0efef;stop-opacity:1;" />
      <stop
         id="stop6139"
         offset="0.90122044"
         style="stop-color:#e3e1e1;stop-opacity:1;" />
      <stop
         id="stop6137"
         offset="1"
         style="stop-color:#cecbcb;stop-opacity:1" />
    </linearGradient>
    <linearGradient
       inkscape:collect="always"
       xlink:href="#linearGradient6131"
       id="linearGradient3893"
       gradientUnits="userSpaceOnUse"
       gradientTransform="matrix(1.0119858,0,0,1.0119858,-0.89554075,-0.9871566)"
       x1="86.73793"
       y1="93.621468"
       x2="95.460213"
       y2="102.34375" />
    <radialGradient
       inkscape:collect="always"
       xlink:href="#linearGradient3913-5"
       id="radialGradient3919-5"
       cx="90.75"
       cy="110.25299"
       fx="90.75"
       fy="110.25299"
       r="18.750002"
       gradientTransform="matrix(1.3067347,0,0,1.3067347,-27.83617,-33.818441)"
       gradientUnits="userSpaceOnUse" />
    <linearGradient
       inkscape:collect="always"
       id="linearGradient3913-5">
      <stop
         style="stop-color:#ffffff;stop-opacity:1;"
         offset="0"
         id="stop3915-4" />
      <stop
         style="stop-color:#ffffff;stop-opacity:0;"
         offset="1"
         id="stop3917-7" />
    </linearGradient>
    <clipPath
       clipPathUnits="userSpaceOnUse"
       id="clipPath3889-6">
      <path
         sodipodi:nodetypes="cscscssc"
         inkscape:connector-curvature="0"
         id="path3891-5"
         d="m 112,82.502986 c 0,4.465301 -2.79749,6.409952 -5.27972,8.093625 -5.10854,3.46508 -14.939114,3.32536 -20.720284,3.40638 -0.081,5.781159 0.16586,15.504599 -3.29922,20.613139 -1.68367,2.48224 -5.29051,5.38687 -8.20078,5.38687 2.31803,0 4.74284,-1.33476 7.58402,-4.08481 9.14197,-8.84873 17.36714,-16.13535 25.673154,-25.297529 C 109.67612,88.503916 112,86.97878 112,82.502986 z"
         style="fill:url(#linearGradient3893);fill-opacity:1;stroke:none" />
    </clipPath>
    <filter
       color-interpolation-filters="sRGB"
       inkscape:collect="always"
       id="filter3909-6">
      <feGaussianBlur
         inkscape:collect="always"
         stdDeviation="0.43040059"
         id="feGaussianBlur3911-9" />
    </filter>
    <linearGradient
       inkscape:collect="always"
       xlink:href="#linearGradient3897-7"
       id="linearGradient3895-3"
       gradientUnits="userSpaceOnUse"
       gradientTransform="matrix(1.3731411,0,0,1.4035776,-49.378546,-43.42319)"
       x1="82.15696"
       y1="90.381706"
       x2="94.220871"
       y2="102.18401" />
    <linearGradient
       id="linearGradient3897-7">
      <stop
         style="stop-color:#fcfcfc;stop-opacity:1"
         offset="0"
         id="stop3899-4" />
      <stop
         id="stop3901-5"
         offset="0.52275378"
         style="stop-color:#f8f8f8;stop-opacity:1" />
      <stop
         style="stop-color:#f0efef;stop-opacity:1;"
         offset="0.72337759"
         id="stop3903-2" />
      <stop
         style="stop-color:#e3e1e1;stop-opacity:1;"
         offset="0.89024991"
         id="stop3905-5" />
      <stop
         style="stop-color:#cecbcb;stop-opacity:1"
         offset="1"
         id="stop3907-4" />
    </linearGradient>
    <clipPath
       clipPathUnits="userSpaceOnUse"
       id="clipPath6093-7">
      <path
         inkscape:connector-curvature="0"
         sodipodi:nodetypes="cccssccc"
         id="path6095-4"
         d="m 17.000001,8 0.782827,110 57.5,0 c 1.675283,0 3.119418,0.18058 4.9,-1.6 C 88.980763,107.60206 99.94047,96.548195 107.19904,89.224043 109.6396,86.761431 110,84.752873 110,82.5 L 110,8 z"
         style="fill:#ffffff;fill-opacity:1" />
    </clipPath>
    <radialGradient
       inkscape:collect="always"
       xlink:href="#linearGradient5982-7"
       id="radialGradient5988-0"
       cx="64"
       cy="64.004021"
       fx="63.793392"
       fy="47.274845"
       r="47.5"
       gradientTransform="matrix(1.7069944,-0.08541345,0.06979496,1.3941371,-58.362376,-20.218185)"
       gradientUnits="userSpaceOnUse" />
    <linearGradient
       inkscape:collect="always"
       id="linearGradient5982-7">
      <stop
         style="stop-color:#ffffff;stop-opacity:1;"
         offset="0"
         id="stop5984-8" />
      <stop
         style="stop-color:#ffffff;stop-opacity:0;"
         offset="1"
         id="stop5986-6" />
    </linearGradient>
    <filter
       color-interpolation-filters="sRGB"
       inkscape:collect="always"
       id="filter6171-8"
       x="-0.47870937"
       width="1.9574188"
       y="-0.51275069"
       height="2.0255013">
      <feGaussianBlur
         inkscape:collect="always"
         stdDeviation="10.140743"
         id="feGaussianBlur6173-8" />
    </filter>
    <linearGradient
       inkscape:collect="always"
       xlink:href="#linearGradient4518-3"
       id="linearGradient4524-4"
       x1="72"
       y1="0"
       x2="72"
       y2="116.40091"
       gradientUnits="userSpaceOnUse"
       gradientTransform="matrix(1.013528,0,0,1.013266,-9.5133685,-1.3073648)" />
    <linearGradient
       id="linearGradient4518-3">
      <stop
         style="stop-color:#eeecec;stop-opacity:1"
         offset="0"
         id="stop4520-1" />
      <stop
         id="stop5969-4"
         offset="0.40000001"
         style="stop-color:#f4f4f4;stop-opacity:1" />
      <stop
         style="stop-color:#f6f5f5;stop-opacity:1"
         offset="1"
         id="stop4522-9" />
    </linearGradient>
    <filter
       inkscape:collect="always"
       id="filter4123">
      <feGaussianBlur
         inkscape:collect="always"
         stdDeviation="2.028"
         id="feGaussianBlur4125" />
    </filter>
    <filter
       inkscape:collect="always"
       id="filter4087"
       x="-0.16465071"
       width="1.3293014"
       y="-0.2041295"
       height="1.408259">
      <feGaussianBlur
         inkscape:collect="always"
         stdDeviation="4.2234282"
         id="feGaussianBlur4089" />
    </filter>
    <filter
       inkscape:collect="always"
       id="filter4084">
      <feGaussianBlur
         inkscape:collect="always"
         stdDeviation="1.4598961"
         id="feGaussianBlur4086" />
    </filter>
    <linearGradient
       inkscape:collect="always"
       xlink:href="#linearGradient6111"
       id="linearGradient3317"
       gradientUnits="userSpaceOnUse"
       x1="28.81802"
       y1="23.69491"
       x2="97.504311"
       y2="97.234016"
       gradientTransform="matrix(1.0326837,0,0,1.0326837,-12.813508,-4.474007)" />
    <linearGradient
       id="linearGradient6111">
      <stop
         id="stop6113"
         offset="0"
         style="stop-color:#9c0f0f;stop-opacity:1;" />
      <stop
         style="stop-color:#e81919;stop-opacity:1;"
         offset="0.5"
         id="stop7088" />
      <stop
         id="stop6115"
         offset="1"
         style="stop-color:#cd1313;stop-opacity:1;" />
    </linearGradient>
    <linearGradient
       gradientTransform="matrix(1,0,0,1.0103538,0,-1.3128784)"
       gradientUnits="userSpaceOnUse"
       y2="118.5"
       x2="60.25"
       y1="122.00736"
       x1="60.25"
       id="linearGradient28138"
       xlink:href="#linearGradient28132"
       inkscape:collect="always" />
    <linearGradient
       y2="20.038458"
       x2="11.917725"
       y1="17.560907"
       x1="11.917725"
       gradientTransform="matrix(1.1062878,0,0,1.1062878,0.547091,-2.2994329)"
       gradientUnits="userSpaceOnUse"
       id="linearGradient28116"
       xlink:href="#linearGradient28059"
       inkscape:collect="always" />
    <radialGradient
       r="2.15"
       fy="18.836424"
       fx="14"
       cy="19.699831"
       cx="14"
       gradientTransform="matrix(1.1062878,0,0,1.1062878,0.547091,-2.2994329)"
       gradientUnits="userSpaceOnUse"
       id="radialGradient28114"
       xlink:href="#linearGradient28069"
       inkscape:collect="always" />
    <linearGradient
       y2="18.75548"
       x2="16"
       y1="1.5952783"
       x1="16"
       gradientUnits="userSpaceOnUse"
       id="linearGradient28112"
       xlink:href="#linearGradient28049"
       inkscape:collect="always" />
    <radialGradient
       r="4"
       fy="18"
       fx="16"
       cy="18"
       cx="16"
       gradientTransform="matrix(1,0,0,1.5,0,-9)"
       gradientUnits="userSpaceOnUse"
       id="radialGradient28110"
       xlink:href="#linearGradient28077"
       inkscape:collect="always" />
    <filter
       id="filter28101"
       inkscape:collect="always">
      <feGaussianBlur
         id="feGaussianBlur28103"
         stdDeviation="0.04177847"
         inkscape:collect="always" />
    </filter>
    <clipPath
       id="clipPath28045"
       clipPathUnits="userSpaceOnUse">
      <rect
         ry="1.079258"
         rx="1.079258"
         y="12"
         x="12"
         height="12"
         width="8"
         id="rect28047"
         style="opacity:0.18359375;fill:#000000;fill-opacity:1;stroke:none;stroke-width:0.1;stroke-linecap:round;stroke-linejoin:round;stroke-miterlimit:4;stroke-dasharray:none;stroke-dashoffset:4.15;stroke-opacity:1" />
    </clipPath>
    <clipPath
       id="clipPath28041"
       clipPathUnits="userSpaceOnUse">
      <rect
         ry="1.079258"
         rx="1.079258"
         y="12"
         x="12"
         height="12"
         width="8"
         id="rect28043"
         style="opacity:0.18359375;fill:#000000;fill-opacity:1;stroke:none;stroke-width:0.1;stroke-linecap:round;stroke-linejoin:round;stroke-miterlimit:4;stroke-dasharray:none;stroke-dashoffset:4.15;stroke-opacity:1" />
    </clipPath>
    <filter
       height="1.2030769"
       y="-0.10153846"
       width="1.2933333"
       x="-0.14666667"
       id="filter28031"
       inkscape:collect="always">
      <feGaussianBlur
         id="feGaussianBlur28033"
         stdDeviation="0.55"
         inkscape:collect="always" />
    </filter>
    <filter
       height="1.0452233"
       y="-0.022611663"
       width="1.5097902"
       x="-0.2548951"
       id="filter28003"
       inkscape:collect="always">
      <feGaussianBlur
         id="feGaussianBlur28005"
         stdDeviation="0.35662617"
         inkscape:collect="always" />
    </filter>
    <linearGradient
       gradientTransform="translate(1,0)"
       gradientUnits="userSpaceOnUse"
       y2="100.83184"
       x2="90.051779"
       y1="100.83184"
       x1="86.693916"
       id="linearGradient27989"
       xlink:href="#linearGradient27983"
       inkscape:collect="always" />
    <linearGradient
       y2="63.208507"
       x2="-188.19296"
       y1="63.208507"
       x1="-303.8866"
       gradientTransform="matrix(0.1674014,0,0,0.1674014,-177.23431,45.441149)"
       gradientUnits="userSpaceOnUse"
       id="linearGradient25127"
       xlink:href="#linearGradient17383"
       inkscape:collect="always" />
    <linearGradient
       y2="80"
       x2="52"
       y1="112"
       x1="52"
       gradientTransform="translate(-318.0812,-14.652496)"
       gradientUnits="userSpaceOnUse"
       id="linearGradient25069"
       xlink:href="#linearGradient3215"
       inkscape:collect="always" />
    <clipPath
       id="clipPath25065"
       clipPathUnits="userSpaceOnUse">
      <path
         style="opacity:1;fill:url(#linearGradient25069);fill-opacity:1;stroke:none;stroke-width:0.1;stroke-linecap:round;stroke-linejoin:round;stroke-miterlimit:4;stroke-dasharray:none;stroke-dashoffset:4.15;stroke-opacity:1"
         d="M -283.36245,66.003757 C -284.5397,66.003757 -285.48745,66.951507 -285.48745,68.128757 L -285.48745,105.94751 L -230.0812,105.94751 L -230.0812,68.128757 C -230.0812,66.951507 -231.02895,66.003757 -232.2062,66.003757 L -283.36245,66.003757 z M -277.1437,69.347507 L -263.0187,69.347507 C -262.49915,69.347507 -262.0812,69.765457 -262.0812,70.285007 L -262.0812,96.410007 C -262.0812,96.929557 -262.49915,97.347507 -263.0187,97.347507 L -277.1437,97.347507 C -277.66325,97.347507 -278.0812,96.929557 -278.0812,96.410007 L -278.0812,70.285007 C -278.0812,69.76546 -277.66325,69.347507 -277.1437,69.347507 z"
         id="path25067"
         sodipodi:nodetypes="cccccccccccccccc" />
    </clipPath>
    <linearGradient
       gradientUnits="userSpaceOnUse"
       y2="84"
       x2="36"
       y1="120"
       x1="68"
       id="linearGradient3281"
       xlink:href="#linearGradient3275"
       inkscape:collect="always" />
    <filter
       height="1.1857692"
       y="-0.092884615"
       width="1.2476923"
       x="-0.12384615"
       id="filter3271"
       inkscape:collect="always">
      <feGaussianBlur
         id="feGaussianBlur3273"
         stdDeviation="1.2384615"
         inkscape:collect="always" />
    </filter>
    <linearGradient
       gradientTransform="matrix(1,0,0,0.9968924,0,-0.2252278)"
       gradientUnits="userSpaceOnUse"
       y2="80"
       x2="52"
       y1="112"
       x1="52"
       id="linearGradient3221"
       xlink:href="#linearGradient3215"
       inkscape:collect="always" />
    <clipPath
       id="clipPath3199"
       clipPathUnits="userSpaceOnUse">
      <path
         sodipodi:nodetypes="ccccccc"
         clip-path="none"
         id="path3201"
         d="M 18.189713,132.42089 C 16.770505,132.42089 15.627213,133.56419 15.627213,134.98339 L 15.627213,172.16667 L 87.627215,172.16667 L 87.627215,134.98339 C 87.627215,133.56419 86.483925,132.42089 85.064715,132.42089 L 18.189713,132.42089 z"
         style="fill:#000000;fill-opacity:0.12831858;stroke:none;stroke-width:0.5;stroke-linecap:round;stroke-linejoin:round;stroke-miterlimit:4;stroke-dasharray:none;stroke-dashoffset:4.15;stroke-opacity:1" />
    </clipPath>
    <filter
       id="filter3192"
       inkscape:collect="always">
      <feGaussianBlur
         id="feGaussianBlur3194"
         stdDeviation="0.0231875"
         inkscape:collect="always" />
    </filter>
    <linearGradient
       gradientTransform="translate(126.8,0)"
       gradientUnits="userSpaceOnUse"
       y2="106.7981"
       x2="-12.625"
       y1="42.336197"
       x1="-37.195274"
       id="linearGradient3142"
       xlink:href="#linearGradient3136"
       inkscape:collect="always" />
    <linearGradient
       gradientUnits="userSpaceOnUse"
       y2="176.35008"
       x2="47.608696"
       y1="104.35009"
       x1="47.608696"
       id="linearGradient3712"
       xlink:href="#linearGradient3706"
       inkscape:collect="always" />
    <radialGradient
       gradientUnits="userSpaceOnUse"
       gradientTransform="matrix(1,0,0,0.6210279,0,37.87587)"
       r="32"
       fy="91.983192"
       fx="84"
       cy="91.983192"
       cx="84"
       id="radialGradient3704"
       xlink:href="#linearGradient3468"
       inkscape:collect="always" />
    <filter
       height="1.2405112"
       y="-0.12025558"
       width="1.1380129"
       x="-0.06900647"
       id="filter3659"
       inkscape:collect="always">
      <feGaussianBlur
         id="feGaussianBlur3661"
         stdDeviation="1.9228365"
         inkscape:collect="always" />
    </filter>
    <linearGradient
       y2="1897.0332"
       x2="-98.926186"
       y1="1892.9656"
       x1="-98.926186"
       gradientTransform="matrix(2.5599786,0,0,2.5827101,317.24891,-5063.043)"
       gradientUnits="userSpaceOnUse"
       id="linearGradient3219"
       xlink:href="#linearGradient3317-3"
       inkscape:collect="always" />
    <clipPath
       id="clipPath3215"
       clipPathUnits="userSpaceOnUse">
      <path
         id="path3217"
         d="M 11.375,-167.68125 C 8.4215521,-167.68125 8,-167.31718 8,-164.3375 L 8,-163.55625 C 8,-166.53593 8.4215521,-166.86875 11.375,-166.86875 L 116.625,-166.86875 C 119.57845,-166.86875 120,-166.53593 120,-163.55625 L 120,-164.3375 C 120,-167.31718 119.57845,-167.68125 116.625,-167.68125 L 11.375,-167.68125 z"
         style="opacity:1;fill:url(#linearGradient3219);fill-opacity:1;stroke:none;stroke-width:0.5;stroke-linecap:round;stroke-linejoin:round;stroke-miterlimit:4;stroke-dasharray:none;stroke-dashoffset:1.08779998;stroke-opacity:1" />
    </clipPath>
    <radialGradient
       gradientUnits="userSpaceOnUse"
       gradientTransform="matrix(4.8110826,7.5339956e-7,-3.1417064e-7,1.9257147,-441.90372,-88.154647)"
       r="38"
       fy="42.449028"
       fx="100.30548"
       cy="42.449028"
       cx="100.30548"
       id="radialGradient3083"
       xlink:href="#linearGradient3077"
       inkscape:collect="always" />
    <clipPath
       id="clipPath3008"
       clipPathUnits="userSpaceOnUse">
      <rect
         ry="1.133948"
         rx="1.133948"
         y="-68.245476"
         x="24.680513"
         height="55.395592"
         width="78.12355"
         id="rect3010"
         style="opacity:0.265625;fill:none;fill-opacity:1;stroke:#000000;stroke-width:0.39999992;stroke-linecap:round;stroke-linejoin:round;stroke-miterlimit:4;stroke-dasharray:none;stroke-dashoffset:4.15;stroke-opacity:1" />
    </clipPath>
    <linearGradient
       y2="1895.421"
       x2="-97.742668"
       y1="1937.9885"
       x1="-97.742668"
       gradientTransform="matrix(2.5599786,0,0,2.5618328,317.24891,-4847.794)"
       gradientUnits="userSpaceOnUse"
       id="linearGradient3250"
       xlink:href="#linearGradient3174"
       inkscape:collect="always" />
    <linearGradient
       id="linearGradient3174">
      <stop
         id="stop3176"
         offset="0"
         style="stop-color:#2e2a2b;stop-opacity:1;" />
      <stop
         style="stop-color:#4c494a;stop-opacity:1;"
         offset="0.33497536"
         id="stop3182" />
      <stop
         id="stop3214"
         offset="0.66748768"
         style="stop-color:#5b595a;stop-opacity:1;" />
      <stop
         id="stop3178"
         offset="1"
         style="stop-color:#6b696a;stop-opacity:1;" />
    </linearGradient>
    <linearGradient
       id="linearGradient3317-3"
       inkscape:collect="always">
      <stop
         id="stop3319"
         offset="0"
         style="stop-color:#000000;stop-opacity:1;" />
      <stop
         id="stop3321"
         offset="1"
         style="stop-color:#000000;stop-opacity:0;" />
    </linearGradient>
    <linearGradient
       id="linearGradient3077">
      <stop
         id="stop3079"
         offset="0"
         style="stop-color:#d0ced9;stop-opacity:1;" />
      <stop
         style="stop-color:#ecf1f9;stop-opacity:1;"
         offset="0.25"
         id="stop3087" />
      <stop
         style="stop-color:#ffffff;stop-opacity:1;"
         offset="0.5"
         id="stop3085" />
      <stop
         id="stop3081"
         offset="1"
         style="stop-color:#c6d5e3;stop-opacity:1;" />
    </linearGradient>
    <linearGradient
       id="linearGradient3111">
      <stop
         id="stop3113"
         offset="0"
         style="stop-color:#ffffff;stop-opacity:1;" />
      <stop
         style="stop-color:#ffffff;stop-opacity:0.69818181;"
         offset="0.5"
         id="stop3603" />
      <stop
         id="stop3115"
         offset="1"
         style="stop-color:#ffffff;stop-opacity:0;" />
    </linearGradient>
    <linearGradient
       id="linearGradient3468"
       inkscape:collect="always">
      <stop
         id="stop3470"
         offset="0"
         style="stop-color:#ffffff;stop-opacity:1;" />
      <stop
         id="stop3472"
         offset="1"
         style="stop-color:#ffffff;stop-opacity:0;" />
    </linearGradient>
    <linearGradient
       id="linearGradient3706"
       inkscape:collect="always">
      <stop
         id="stop3708"
         offset="0"
         style="stop-color:#000000;stop-opacity:1;" />
      <stop
         id="stop3710"
         offset="1"
         style="stop-color:#000000;stop-opacity:0;" />
    </linearGradient>
    <linearGradient
       id="linearGradient3136"
       inkscape:collect="always">
      <stop
         id="stop3138"
         offset="0"
         style="stop-color:#ffffff;stop-opacity:1;" />
      <stop
         id="stop3140"
         offset="1"
         style="stop-color:#ffffff;stop-opacity:0;" />
    </linearGradient>
    <linearGradient
       id="linearGradient3215">
      <stop
         id="stop3217"
         offset="0"
         style="stop-color:#8a8a8a;stop-opacity:1;" />
      <stop
         id="stop3219"
         offset="1"
         style="stop-color:#c6c6c6;stop-opacity:1;" />
    </linearGradient>
    <linearGradient
       id="linearGradient3275"
       inkscape:collect="always">
      <stop
         id="stop3277"
         offset="0"
         style="stop-color:#000000;stop-opacity:1;" />
      <stop
         id="stop3279"
         offset="1"
         style="stop-color:#000000;stop-opacity:0;" />
    </linearGradient>
    <linearGradient
       id="linearGradient17383">
      <stop
         id="stop17385"
         offset="0"
         style="stop-color:#202020;stop-opacity:1;" />
      <stop
         id="stop17387"
         offset="1"
         style="stop-color:#202020;stop-opacity:0.76363635;" />
    </linearGradient>
    <linearGradient
       id="linearGradient17395">
      <stop
         id="stop17397"
         offset="0"
         style="stop-color:#ffffff;stop-opacity:1;" />
      <stop
         id="stop17399"
         offset="1"
         style="stop-color:#ffffff;stop-opacity:0.80000001;" />
    </linearGradient>
    <linearGradient
       id="linearGradient27983"
       inkscape:collect="always">
      <stop
         id="stop27985"
         offset="0"
         style="stop-color:#000000;stop-opacity:1;" />
      <stop
         id="stop27987"
         offset="1"
         style="stop-color:#000000;stop-opacity:0;" />
    </linearGradient>
    <linearGradient
       id="linearGradient28049"
       inkscape:collect="always">
      <stop
         id="stop28051"
         offset="0"
         style="stop-color:#000000;stop-opacity:1;" />
      <stop
         id="stop28053"
         offset="1"
         style="stop-color:#000000;stop-opacity:0;" />
    </linearGradient>
    <linearGradient
       id="linearGradient28059">
      <stop
         id="stop28061"
         offset="0"
         style="stop-color:#ffffff;stop-opacity:1;" />
      <stop
         id="stop28063"
         offset="1"
         style="stop-color:#000000;stop-opacity:1;" />
    </linearGradient>
    <linearGradient
       id="linearGradient28069">
      <stop
         id="stop28071"
         offset="0"
         style="stop-color:#868385;stop-opacity:1;" />
      <stop
         id="stop28073"
         offset="1"
         style="stop-color:#4a4949;stop-opacity:1" />
    </linearGradient>
    <linearGradient
       id="linearGradient28077">
      <stop
         id="stop28079"
         offset="0"
         style="stop-color:#7a7a7a;stop-opacity:1;" />
      <stop
         id="stop28081"
         offset="1"
         style="stop-color:#000000;stop-opacity:0.4909091;" />
    </linearGradient>
    <linearGradient
       id="linearGradient28132"
       inkscape:collect="always">
      <stop
         id="stop28134"
         offset="0"
         style="stop-color:#000000;stop-opacity:1;" />
      <stop
         id="stop28136"
         offset="1"
         style="stop-color:#000000;stop-opacity:0;" />
    </linearGradient>
  </defs>
  <sodipodi:namedview
     id="base"
     pagecolor="#ffffff"
     bordercolor="#666666"
     borderopacity="1.0"
     inkscape:pageopacity="0.0"
     inkscape:pageshadow="2"
     inkscape:zoom="11.313708"
     inkscape:cx="69.954451"
     inkscape:cy="29.995522"
     inkscape:document-units="px"
     inkscape:current-layer="layer1"
     width="128px"
     height="128px"
     showgrid="true"
     inkscape:grid-points="true"
     showguides="true"
     inkscape:guide-bbox="true"
     inkscape:window-width="1440"
     inkscape:window-height="1039"
     inkscape:window-x="257"
     inkscape:window-y="34"
     inkscape:snap-global="true"
     inkscape:window-maximized="0"
     inkscape:snap-page="false"
     inkscape:snap-grids="false"
     inkscape:snap-to-guides="false">
    <inkscape:grid
       id="GridFromPre046Settings"
       type="xygrid"
       originx="0px"
       originy="0px"
       spacingx="4px"
       spacingy="4px"
       color="#0000ff"
       empcolor="#0000ff"
       opacity="0.2"
       empopacity="0.4"
       empspacing="4"
       visible="true"
       enabled="true"
       snapvisiblegridlinesonly="true" />
    <sodipodi:guide
       orientation="1,0"
       position="-68,29.325902"
       id="guide4564" />
    <sodipodi:guide
       orientation="1,0"
       position="-121.62237,135.0574"
       id="guide3859" />
    <sodipodi:guide
       orientation="0,1"
       position="38.581514,-74.688154"
       id="guide4360" />
  </sodipodi:namedview>
  <metadata
     id="metadata2611">
    <rdf:RDF>
      <cc:Work
         rdf:about="">
        <dc:format>image/svg+xml</dc:format>
        <dc:type
           rdf:resource="http://purl.org/dc/dcmitype/StillImage" />
        <dc:title></dc:title>
      </cc:Work>
    </rdf:RDF>
  </metadata>
  <g
     inkscape:label="Livello 1"
     inkscape:groupmode="layer"
     id="layer1">
    <path
       style="opacity:0.45606695;fill:#000000;fill-opacity:1;filter:url(#filter4123)"
       d="m 13.333,5.3364 0,118.3304 49.8545,-0.0668 c 2.115554,-0.003 4.528919,-1.77169 7,-4.25 0.71234,-0.71442 1.440746,-1.39395 2.15625,-2.09375 0.415612,-0.40649 0.832187,-0.81443 1.25,-1.21875 7.773958,-7.40962 26.98341,-25.122599 34.21875,-33.099999 0.42065,-0.42064 0.81207,-0.8111 1.15625,-1.1875 1.46444,-1.49766 2.76158,-2.8378 2.99375,-5.8625 L 112,75.156251 111.9972,5.3364 z"
       id="path5990"
       inkscape:connector-curvature="0"
       sodipodi:nodetypes="ccsssccccccc"
       transform="matrix(1.013528,0,0,1.013266,-9.5133689,-1.3073677)" />
    <path
       sodipodi:type="inkscape:offset"
       inkscape:radius="-0.31466308"
       inkscape:original="M 13.1875 4.53125 C 12.818918 4.609246 12.529956 4.967008 12.53125 5.34375 L 12.53125 123.65625 C 12.53885 124.07954 12.920464 124.4611 13.34375 124.46875 L 62.15625 124.46875 C 63.930251 124.46875 65.829207 124.74865 68.6875 122.8125 C 68.829003 122.58432 71.218784 120.82456 70.53125 121.25 C 80.188854 112.07585 98.162197 92.41186 109.34375 81.09375 C 111.06182 79.375681 112.8125 77.674752 112.8125 73.3125 L 112.8125 5.34375 C 112.80483 4.9204809 112.42327 4.5388981 112 4.53125 L 13.34375 4.53125 C 13.29182 4.52633 13.239428 4.52633 13.1875 4.53125 z "
       style="fill:#000000;fill-opacity:1;filter:url(#filter4084)"
       id="path3314"
       d="m 13.21875,4.84375 c -0.201143,0.05725 -0.375711,0.2931131 -0.375,0.5 l 0,118.3125 c 0.0043,0.23765 0.262302,0.4957 0.5,0.5 l 48.8125,0 c 1.807099,0 3.550693,0.29821 6.34375,-1.59375 0.03611,-0.0371 0.07724,-0.0824 0.125,-0.125 0.08359,-0.0745 0.19399,-0.18448 0.3125,-0.28125 0.23702,-0.19354 0.516618,-0.41733 0.78125,-0.625 0.206542,-0.16208 0.368737,-0.26884 0.5,-0.375 a 0.31469455,0.31469455 0 0 1 0.03125,-0.0625 c 0.0046,-0.004 0.02682,0.004 0.03125,0 a 0.31469455,0.31469455 0 0 1 0.03125,-0.0625 c 0.0044,-0.004 0.02685,0.004 0.03125,0 9.639369,-9.15919 27.595222,-28.83361 38.78125,-40.15625 1.72022,-1.720217 3.375,-3.284436 3.375,-7.5625 l 0,-67.96875 c -0.004,-0.2376834 -0.26234,-0.4957056 -0.5,-0.5 l -98.65625,0 a 0.31469455,0.31469455 0 0 1 -0.03125,0 c -0.02143,-0.00203 -0.04093,-6.768e-4 -0.0625,0 -0.01078,3.384e-4 -0.02054,-0.00102 -0.03125,0 z"
       transform="matrix(1.013528,0,0,1.013266,-9.5133689,-1.3073677)" />
    <path
       style="fill:#ffffff;fill-opacity:1"
       d="m 4,4 0,120 49.999784,0 c 1.697965,0 3.967298,-0.57754 7.094784,-3.68191 8.990151,-8.92376 32.510002,-32.235741 39.866862,-39.726545 2.47359,-2.518643 3.04157,-4.572903 3.04157,-6.87703 L 104,4 z"
       id="path34"
       sodipodi:nodetypes="cccssccc"
       inkscape:connector-curvature="0" />
    <path
       style="fill:url(#linearGradient4524-4);fill-opacity:1"
       d="M 7.506762,7 C 7.162322,7 7,7.2377304 7,7.5066333 L 7,119.48009 c 0,0.83248 0.688512,1.5205 1.520292,1.51991 l 44.959416,-0.0317 c 0.05379,-4e-5 0.821348,0.0237 1.520292,0.0317 1.801712,-0.0406 3.174343,-0.76374 4.414963,-1.61442 C 60.481059,119.09069 89.540465,90.697457 98.78496,81.385896 100.1658,79.995068 101,77.38535 101,76.425341 L 101,7.5066332 C 101,7.179635 100.83457,7 100.49323,7 z"
       id="path3967"
       inkscape:connector-curvature="0"
       sodipodi:nodetypes="ccsssccscccc" />
    <path
       sodipodi:nodetypes="ccssscccccc"
       inkscape:connector-curvature="0"
       id="path5980"
       d="M 7.506762,7 C 7.162322,7 7,7.2377304 7,7.5066333 L 7,119.48009 c 0,0.83249 0.688527,1.51486 1.520292,1.51991 l 46.845657,0.2846 c 0.05379,3.3e-4 3.318172,-0.008 4.017117,5e-5 6.629458,-4.5634 31.077115,-31.337425 40.143354,-40.458653 0.66623,-0.74707 0.46379,-0.37498 1.47358,-1.628786 L 101,7.5066332 C 101,7.179635 100.83457,7 100.49323,7 z"
       style="opacity:0.84653476;fill:url(#radialGradient5988-0);fill-opacity:1" />
    <path
       style="fill:#000000"
       d=""
       id="path2197" />
    <path
       inkscape:connector-curvature="0"
       style="opacity:0.06557378;fill:#2e3436"
       d="M 44.743715,3.7874622 C 43.498928,12.547603 53.152383,23.979009 67.594835,34.742825 63.327415,51.437341 56.026868,70.285174 48.182954,85.929377 l -0.03305,0.03289 c -21.564238,11.01273 -35.999978,22.409093 -31.085447,29.968483 1.185087,1.82283 2.649877,2.68872 4.265985,2.79619 -11.309837,-6.88295 12.751888,-16.94529 20.10633,-20.823323 l 0.165354,0.197377 c -7.491707,12.581696 -14.918944,20.981856 -20.271684,20.625946 7.702612,3.76392 18.323237,-7.60284 28.043041,-24.869564 15.590983,-7.696061 34.901331,-16.170322 53.473597,-23.389232 0,-2.403254 0,-3.814298 0,-6.645042 C 86.62387,69.059335 69.731902,75.61659 55.160673,82.541065 61.879117,68.462262 67.749748,52.267256 71.331725,37.440317 c 9.368516,6.548004 20.328905,12.720499 31.515355,17.76397 0,-4.677038 0,-4.991344 0,-9.80308 C 92.34382,40.084385 82.038228,34.117677 73.282836,28.13068 c 1.703195,-9.460125 2.253966,-17.917382 1.190498,-24.3432178 -1.351607,0 -1.844424,0 -3.273886,0 0.769081,5.738409 0.14374,13.2852498 -1.521205,21.8102088 C 58.716998,17.690804 50.821399,9.9356412 49.075864,3.7874622 c -2.08567,0 -2.310847,0 -4.332129,0 z"
       id="path1937" />
    <path
       inkscape:connector-curvature="0"
       style="fill:url(#linearGradient3317);fill-opacity:1"
       d="M 36.222319,7.923322 C 34.82328,7.975886 33.326973,8.3639186 31.684015,9.0933602 17.000214,15.612693 27.817575,30.571195 46.528037,44.257722 46.641601,41.632769 46.710233,39.069654 46.685614,36.605046 30.721905,25.254215 21.378514,14.204081 31.557955,9.8206812 42.283356,5.2021799 46.50254,18.281977 46.685614,36.605046 c 0.998481,0.70996 2.009272,1.40767 3.057054,2.118716 C 49.351157,22.039861 45.831451,8.9591752 37.609017,7.9865677 37.170653,7.9347167 36.688668,7.9058015 36.222319,7.9233262 z m 13.520349,30.80044 -1.915391,-3.146743 -2.428614,2.177534 -0.509877,3.3104 3.20799,6.27495 1.614374,-0.805352 c 10.773937,7.452737 23.635206,14.316908 35.707578,19.036823 l 3.580304,2.163761 6.780708,0.535717 3.73796,-1.744076 1.22064,-3.001737 -6.08544,-0.862948 C 80.231186,56.865008 63.127373,47.806834 49.742668,38.723762 z M 94.6529,62.662091 c 1.87862,0.755144 3.74372,1.449298 5.5153,2.087094 0.90864,-0.340167 1.80134,-0.699663 2.67886,-1.011923 0,-1.253045 0,-1.761205 0,-3.099019 -2.58925,0.541759 -5.32702,1.208723 -8.19416,2.023848 z m 5.5153,2.087094 c -2.61618,0.979416 -5.36849,2.034762 -8.19414,3.225508 3.8055,1.258248 7.4589,2.232364 10.873,2.909282 0,-1.678968 0,-3.21031 0,-5.217734 -0.87102,-0.284468 -1.75165,-0.583245 -2.67886,-0.917056 z m -8.19414,3.225508 C 89.81796,67.261814 87.649314,66.443464 85.418728,65.571374 71.759297,70.295577 56.80042,77.095602 44.63708,84.355215 l -3.522939,0.724116 -2.718653,5.048921 -3.650867,4.943261 4.118415,4.264341 3.22125,-5.493854 C 56.324064,84.976502 75.547584,74.896913 91.97406,67.974693 z M 42.084286,93.842 c -1.739959,1.083275 -3.404676,2.155913 -4.979518,3.193884 -3.651497,10.760126 -7.910316,17.979106 -11.976074,17.677056 6.280255,3.15713 12.399484,-6.38786 16.955592,-20.87094 z m -16.955592,20.87094 c -9.585194,-5.86901 7.439412,-14.54913 11.976074,-17.677056 1.028398,-3.030441 1.986243,-6.325694 2.899466,-9.834633 -14.300356,9.242688 -23.267613,18.826909 -18.46835,25.171609 1.156554,1.52897 2.379541,2.24993 3.59281,2.34008 z M 40.004234,87.201251 C 41.489181,86.24149 43.045652,85.30505 44.63708,84.355215 47.458278,72.54612 49.327198,58.971176 49.71115,46.534551 48.626512,45.78427 47.566741,45.01752 46.528037,44.257722 45.922234,58.260844 43.41938,74.079119 40.004234,87.201251 z"
       id="path3342"
       sodipodi:nodetypes="csccsccsccccccccccccccccccccccccccccccccccccccccscccccc" />
    <path
       clip-path="url(#clipPath6093-7)"
       style="opacity:0.34728035;fill:#000000;fill-opacity:1;stroke:none;filter:url(#filter6171-8)"
       d="m 114.4,82.502986 c 0,4.465301 -6.19771,3.506816 -8.67994,5.190489 -5.10854,3.46508 -20.174689,2.225237 -25.955859,2.306257 -0.081,5.781159 0.786541,16.143798 0.786541,22.293818 0,2.97817 -3.440475,11.20945 -6.350745,11.20945 -2.091359,1.5337 3.488204,8.21101 6.734971,5.31989 9.501888,-8.46107 35.131682,-30.022704 43.350822,-39.262889 2.04044,-2.29392 -4.90514,-9.844666 -9.88579,-7.057015 z"
       id="path6153"
       inkscape:connector-curvature="0"
       sodipodi:nodetypes="cscscssc"
       transform="matrix(1.2713893,0,0,1.3008089,-39.411352,-31.072453)" />
    <path
       sodipodi:nodetypes="cscscssc"
       inkscape:connector-curvature="0"
       id="path6081"
       d="m 113.9,82.502986 c 0,4.465301 -7.96273,11.129672 -10.95287,11.553449 -6.394981,0.906328 -15.824979,-3.47754 -21.606149,-3.39652 -0.081,5.781159 3.918356,18.962455 0.453276,24.070995 -1.68367,2.48224 -3.883991,8.07209 -6.794261,8.07209 -2.091359,1.5337 3.488204,11.21101 6.734971,8.31989 9.501888,-8.46107 45.998943,-30.20138 54.218083,-39.441569 2.04044,-2.29392 -17.0724,-11.965986 -22.05305,-9.178335 z"
       style="opacity:0.49295774;fill:#000000;fill-opacity:1;stroke:none;filter:url(#filter4087)"
       clip-path="url(#clipPath6093-7)"
       transform="matrix(1.323697,0,0,1.3543271,-45.27081,-37.383179)" />
    <path
       style="fill:url(#linearGradient3895-3);fill-opacity:1;stroke:none"
       d="m 103.80692,72.373791 c 0,6.193164 -3.79585,8.890306 -7.16393,11.225476 C 89.711316,88.405175 75.444341,87.387629 67.6,87.5 c -0.109909,8.0182 0.701692,21.4147 -4,28.5 -2.284534,3.44276 -6.727129,8.38457 -10.67601,8.38457 3.145284,0 6.435454,-1.85125 10.290589,-5.66544 12.404537,-12.27278 23.56509,-22.378984 34.835341,-35.086504 2.60379,-2.935824 5.757,-5.051122 5.757,-11.258835 z"
       id="path6011"
       inkscape:connector-curvature="0"
       sodipodi:nodetypes="cscscssc" />
    <path
       style="fill:#ffffff;fill-opacity:1;stroke:none"
       d="m 103.83234,71.941762 c -0.42932,5.407885 -4.39696,7.298568 -6.55729,8.796367 C 92.15305,84.28932 85.349113,84 64,84 c 0,19.65502 0.5,28.4 -3.219913,33.20293 -2.21447,2.85919 -6.648335,6.04727 -10.26176,6.86542 4.951272,0 8.407066,-1.08166 11.641616,-4.28186 0.460141,-0.53889 1.37925,-1.54169 2.101048,-2.68043 C 68.100178,111.32051 68,99.904353 68,88 c 7.844341,-0.112342 21.630842,1.155905 28.5625,-3.65 0.63154,-0.437847 2.56984,-2.009889 3.13546,-2.57551 3.14173,-3.14173 3.82294,-5.144366 4.13438,-9.832728 z M 50.518327,124.06835 c -0.213922,0.0483 -0.425295,0.0575 -0.636038,0.0866 0.213019,-0.0234 0.421235,-0.0465 0.636038,-0.0866 z"
       id="path6122"
       inkscape:connector-curvature="0"
       sodipodi:nodetypes="cscsccccsscccc" />
    <path
       style="fill:none;stroke:url(#radialGradient3919-5);stroke-width:1.85605633;stroke-linecap:butt;stroke-linejoin:miter;stroke-miterlimit:4;stroke-opacity:1;stroke-dasharray:none;filter:url(#filter3909-6)"
       d="M 108.97651,89.508691 79.934895,118.21077"
       id="path3873"
       inkscape:connector-curvature="0"
       sodipodi:nodetypes="cc"
       clip-path="url(#clipPath3889-6)"
       transform="matrix(1.3568778,0,0,1.3869539,-48.163409,-42.054049)" />
    <g
       id="g6997"
       transform="matrix(0.57218795,0,0,0.57231597,59.38868,59.421635)">
      <path
         sodipodi:nodetypes="ccccccccc"
         id="rect2169"
         d="M 11.361024,8 C 9.552302,8 8,9.6123041 8.0009404,11.299947 l 0,97.132493 L 19.640979,120 116.64018,120 C 119.59363,120 120,119.65564 120,116.70031 L 120,11.299947 C 120,9.5016268 118.44194,8 116.64018,8 L 11.361024,8 z"
         style="fill:url(#linearGradient3250);fill-opacity:1;stroke:none"
         inkscape:connector-curvature="0" />
      <rect
         rx="1.2994773"
         ry="1.2802259"
         y="8"
         x="24"
         height="56"
         width="80"
         id="rect3325"
         style="fill:url(#radialGradient3083);fill-opacity:1;stroke:none" />
      <path
         id="path3476"
         d="m 31.992206,24.117247 0,8.227269 63.936086,0 0,-8.227269 -63.936086,0 z"
         style="opacity:0.56521738;fill:#5581ab;fill-opacity:1;fill-rule:evenodd;stroke:none"
         inkscape:connector-curvature="0" />
      <path
         id="path3478"
         d="m 32,48.228578 0,8.164048 63.983838,0 0,-8.164048 -63.983838,0 z"
         style="opacity:0.56521738;fill:#436788;fill-opacity:1;fill-rule:evenodd;stroke:none"
         inkscape:connector-curvature="0" />
      <path
         sodipodi:nodetypes="ccccccccccccccccc"
         transform="translate(16.391305,-52.350088)"
         clip-path="url(#clipPath3199)"
         id="rect3626"
         d="m 16.78125,130.4375 c -1.48295,0 -2.65625,1.20455 -2.65625,2.6875 l 0,42.03125 c 0,1.48295 1.173301,2.65625 2.65625,2.65625 l 0.15625,0 C 16.529729,177.36613 16.25,176.78074 16.25,176.125 l 0,-39.96875 c 0,-1.39131 1.112011,-2.53125 2.5,-2.53125 l 65.59375,0 c 1.387992,0 2.5,1.13994 2.5,2.53125 l 0,39.96875 c 2e-6,0.65574 -0.248479,1.24113 -0.65625,1.6875 l 0.125,0 c 1.48295,0 2.687502,-1.1733 2.6875,-2.65625 L 89,133.125 c 0,-1.48295 -1.204549,-2.6875 -2.6875,-2.6875 l -69.53125,0 z"
         style="fill:url(#linearGradient3712);fill-opacity:1;stroke:none;filter:url(#filter3659)"
         inkscape:connector-curvature="0" />
      <path
         style="fill:#000000;fill-opacity:0.12831858;stroke:none"
         d="m 34.53781,80.00784 c -1.419208,0 -2.5625,1.14329 -2.5625,2.5625 L 32,119.71658 l 72,0 -0.0247,-37.14624 c 0,-1.41921 -1.14329,-2.5625 -2.5625,-2.5625 l -66.875,0 z"
         id="path3680"
         sodipodi:nodetypes="ccccccc"
         inkscape:connector-curvature="0" />
      <path
         style="opacity:0.07421875;fill:url(#radialGradient3704);fill-opacity:1;stroke:none"
         d="m 34.581018,80.0708 c -1.419208,0 -2.5625,1.1433 -2.5625,2.5625 l 0,37.18328 L 104,119.7 104,82.51672 c 0,-1.4192 -1.14329,-2.5625 -2.5625,-2.5625 L 34.581018,80.0708 z"
         id="path3694"
         clip-path="none"
         sodipodi:nodetypes="ccccccc"
         inkscape:connector-curvature="0" />
      <path
         transform="matrix(1,0,0,1.0103538,0,-1.3128784)"
         id="rect3226"
         d="M 52.9375,84 C 52.41795,84 52,84.417953 52,84.9375 L 52,108 40.9375,108 C 40.41795,108 40,108.41795 40,108.9375 l 0,6.125 C 40,115.58205 40.417949,116 40.9375,116 l 12,0 10.125,0 C 63.58205,116 64,115.58205 64,115.0625 l 0,-6.125 0,-24 C 64,84.41795 63.582051,84 63.0625,84 l -10.125,0 z"
         style="fill:url(#linearGradient3281);fill-opacity:1;stroke:none;filter:url(#filter3271)"
         inkscape:connector-curvature="0" />
      <path
         transform="matrix(0.9067163,0,0,1.1138304,4.475665,-12.395278)"
         id="path3128"
         d="m 112.08125,97.375 0,6.71875 -1.21875,0 -1.03125,0 4.34375,7.53125 4.34375,-7.53125 -1.03125,0 -1.21875,0 0,-6.71875 -2.09375,0 -2.09375,0 z"
         style="opacity:0.453125;fill:url(#linearGradient3142);fill-opacity:1;fill-rule:evenodd;stroke:#ffffff;stroke-width:0.09888723;stroke-linecap:butt;stroke-linejoin:miter;stroke-miterlimit:4;stroke-opacity:1;stroke-dasharray:none;filter:url(#filter3192)"
         inkscape:connector-curvature="0" />
      <rect
         transform="matrix(1,0,0,1.0103538,0,-1.3128784)"
         y="81.905701"
         x="87.693916"
         height="37.852272"
         width="3.3578629"
         id="rect27981"
         style="opacity:0.296875;fill:url(#linearGradient27989);fill-opacity:1;stroke:none;filter:url(#filter28003)" />
      <path
         sodipodi:nodetypes="cccccccccccccccc"
         id="rect3196"
         d="m 34.541973,80.321631 c -1.17725,0 -2.125,0.944804 -2.125,2.118396 L 32.59375,120 88,120 88,82.298781 c 0,-1.173593 -0.82275,-1.97715 -2,-1.97715 l -51.458027,0 z m 6.395527,7.925238 14.125,0 c 0.519551,0 0.9375,0.416652 0.9375,0.934586 l 0,21.310695 c 0,0.51793 -0.41795,0.93459 -0.9375,0.93459 l -14.125,0 c -0.519551,0 -0.9375,-0.41666 -0.9375,-0.93459 l 0,-21.310695 c 0,-0.517932 0.41795,-0.934586 0.9375,-0.934586 z"
         style="fill:url(#linearGradient3221);fill-opacity:1;stroke:none"
         inkscape:connector-curvature="0" />
      <g
         transform="matrix(1.4404859,0,0,0.9603239,-3.0477736,2.7141697)"
         style="opacity:0.78515625"
         id="g28105">
        <rect
           ry="1.079258"
           rx="1.079258"
           y="12"
           x="12"
           height="12"
           width="8"
           id="rect28009"
           style="fill:none;stroke:#000000;stroke-width:0.93187243;stroke-linecap:round;stroke-linejoin:round;stroke-miterlimit:4;stroke-opacity:1;stroke-dasharray:none;stroke-dashoffset:4.15;filter:url(#filter28031)"
           clip-path="url(#clipPath28045)"
           transform="matrix(0.6942102,0,0,0.6942102,4.8926363,5.5042159)" />
        <rect
           style="fill:url(#radialGradient28110);fill-opacity:1;stroke:url(#linearGradient28112);stroke-width:0.93187243;stroke-linecap:round;stroke-linejoin:round;stroke-miterlimit:4;stroke-opacity:1;stroke-dasharray:none;stroke-dashoffset:4.15;filter:url(#filter28031)"
           id="rect28039"
           width="8"
           height="12"
           x="12"
           y="12"
           rx="1.079258"
           ry="1.079258"
           clip-path="url(#clipPath28041)"
           transform="matrix(0.6942102,0,0,0.6942102,4.8926363,5.5042159)" />
        <rect
           style="fill:url(#radialGradient28114);fill-opacity:1;stroke:url(#linearGradient28116);stroke-width:0.30927575;stroke-linecap:round;stroke-linejoin:round;stroke-miterlimit:4;stroke-opacity:1;stroke-dasharray:none;stroke-dashoffset:4.15;filter:url(#filter28101)"
           id="rect28057"
           width="4.3502288"
           height="3.6759202"
           x="13.897468"
           y="18.030909"
           rx="0.45226815"
           ry="0.45226815" />
      </g>
      <path
         style="opacity:0.35;fill:none;stroke:#000000;stroke-width:8;stroke-linecap:round;stroke-linejoin:round;stroke-miterlimit:4;stroke-opacity:1;stroke-dasharray:none;stroke-dashoffset:1.08779998"
         d="m 15.121016,12 c -1.679527,0 -3.120949,1.49714 -3.120076,3.064236 l 0,91.123024 9.880029,9.81274 90.999201,0 C 115.62265,116 116,115.68023 116,112.936 l 0,-97.871764 C 116,13.394368 114.55323,12 112.88017,12 l -97.759154,0 z"
         id="path5411"
         sodipodi:nodetypes="ccccccccc"
         inkscape:connector-curvature="0" />
      <path
         id="rect6382"
         d="m 88,80 0,7.71875 8,0 0,24.28125 8,0 0,-24.28125 0,-7.71875 -8,0 -8,0 z"
         style="opacity:0.35;fill:#000000;fill-opacity:1;stroke:none"
         inkscape:connector-curvature="0" />
      <rect
         y="80"
         x="32"
         height="7.9999962"
         width="56"
         id="rect6387"
         style="opacity:0.39901476;fill:#ffffff;fill-opacity:1;stroke:none" />
      <rect
         style="opacity:0.18719213;fill:#ffffff;fill-opacity:1;stroke:none"
         id="rect6389"
         width="56"
         height="7.9999962"
         x="32"
         y="112" />
      <rect
         y="8.0000038"
         x="24"
         height="7.9999962"
         width="80"
         id="rect6391"
         style="opacity:0.27586209;fill:#ffffff;fill-opacity:1;stroke:none" />
    </g>
  </g>
</svg>
